<svg width="1259" height="447" viewBox="0 0 1259 447" fill="none" xmlns="http://www.w3.org/2000/svg">
<path d="M51.3 60V18.3H35.2L35 23.3C34.8667 26.9667 34.6333 30.4 34.3 33.6C33.9667 36.8 33.5 39.7333 32.9 42.4C32.3667 45.0667 31.6667 47.4333 30.8 49.5C29.9333 51.5 28.8667 53.1667 27.6 54.5L2.7 51.7C4.9 51.7 6.7 50.9667 8.1 49.5C9.56667 47.9667 10.7333 45.8667 11.6 43.2C12.4667 40.4667 13.1 37.2667 13.5 33.6C13.9667 29.8667 14.3 25.7667 14.5 21.3L15.3 -4.76837e-06H74.5V60H51.3ZM0.7 83.7V51.7H83.7V83.7H62.1V70H22.3V83.7H0.7ZM122.626 70V60.3L121.026 57.7V39.3C121.026 36.6333 120.192 34.6 118.526 33.2C116.926 31.8 114.292 31.1 110.626 31.1C108.159 31.1 105.659 31.5 103.126 32.3C100.592 33.0333 98.4258 34.0667 96.6258 35.4L89.4258 20.5C92.6258 18.5 96.4591 16.9667 100.926 15.9C105.392 14.8333 109.759 14.3 114.026 14.3C123.426 14.3 130.692 16.4 135.826 20.6C141.026 24.8 143.626 31.4667 143.626 40.6V70H122.626ZM107.126 71C102.659 71 98.9258 70.2333 95.9258 68.7C92.9258 67.1667 90.6591 65.1333 89.1258 62.6C87.5924 60 86.8258 57.1333 86.8258 54C86.8258 50.4667 87.7258 47.4667 89.5258 45C91.3258 42.5333 94.0591 40.6667 97.7258 39.4C101.459 38.1333 106.159 37.5 111.826 37.5H123.226V48.4H115.426C113.026 48.4 111.259 48.8 110.126 49.6C109.059 50.3333 108.526 51.4667 108.526 53C108.526 54.2667 108.992 55.3333 109.926 56.2C110.926 57 112.259 57.4 113.926 57.4C115.459 57.4 116.859 57 118.126 56.2C119.459 55.3333 120.426 54 121.026 52.2L123.926 58.9C123.059 62.9667 121.226 66 118.426 68C115.626 70 111.859 71 107.126 71ZM152.835 70V15.3H175.335V34.5H190.735V15.3H213.235V70H190.735V52.2H175.335V70H152.835ZM253.812 70V15.3H276.312V34.5H291.712V15.3H314.212V70H291.712V52.2H276.312V70H253.812ZM353.008 71C346.808 71 341.308 69.8 336.508 67.4C331.774 64.9333 328.041 61.5667 325.308 57.3C322.574 53.0333 321.208 48.1333 321.208 42.6C321.208 37.0667 322.574 32.1667 325.308 27.9C328.041 23.6333 331.774 20.3 336.508 17.9C341.308 15.5 346.808 14.3 353.008 14.3C359.208 14.3 364.708 15.5 369.508 17.9C374.308 20.3 378.041 23.6333 380.708 27.9C383.441 32.1667 384.808 37.0667 384.808 42.6C384.808 48.1333 383.441 53.0333 380.708 57.3C378.041 61.5667 374.308 64.9333 369.508 67.4C364.708 69.8 359.208 71 353.008 71ZM353.008 53.4C354.674 53.4 356.174 53 357.508 52.2C358.841 51.4 359.908 50.2 360.708 48.6C361.508 46.9333 361.908 44.9333 361.908 42.6C361.908 40.2 361.508 38.2333 360.708 36.7C359.908 35.1 358.841 33.9 357.508 33.1C356.174 32.3 354.674 31.9 353.008 31.9C351.341 31.9 349.841 32.3 348.508 33.1C347.174 33.9 346.108 35.1 345.308 36.7C344.508 38.2333 344.108 40.2 344.108 42.6C344.108 44.9333 344.508 46.9333 345.308 48.6C346.108 50.2 347.174 51.4 348.508 52.2C349.841 53 351.341 53.4 353.008 53.4ZM391.8 70V15.3H415.7L433.1 49.4H423.7L443.4 15.3H464.6L464.8 70H444.5L444.4 37.1L447.9 39.5L432.8 65.7H423.3L408.2 37.8L412.1 36.8V70H391.8ZM504.796 71C498.129 71 492.296 69.7667 487.296 67.3C482.363 64.8333 478.529 61.4667 475.796 57.2C473.063 52.8667 471.696 48 471.696 42.6C471.696 37.0667 473.029 32.1667 475.696 27.9C478.429 23.6333 482.129 20.3 486.796 17.9C491.529 15.5 496.829 14.3 502.696 14.3C508.096 14.3 513.063 15.3667 517.596 17.5C522.196 19.6333 525.863 22.8 528.596 27C531.396 31.2 532.796 36.4 532.796 42.6C532.796 43.4 532.763 44.3 532.696 45.3C532.629 46.2333 532.563 47.1 532.496 47.9H490.396V37H520.496L511.996 39.9C511.996 37.7667 511.596 35.9667 510.796 34.5C510.063 32.9667 509.029 31.8 507.696 31C506.363 30.1333 504.763 29.7 502.896 29.7C501.029 29.7 499.396 30.1333 497.996 31C496.663 31.8 495.629 32.9667 494.896 34.5C494.163 35.9667 493.796 37.7667 493.796 39.9V43.3C493.796 45.6333 494.263 47.6333 495.196 49.3C496.129 50.9667 497.463 52.2333 499.196 53.1C500.929 53.9 503.029 54.3 505.496 54.3C508.029 54.3 510.096 53.9667 511.696 53.3C513.363 52.6333 515.096 51.6333 516.896 50.3L528.696 62.2C526.029 65.0667 522.729 67.2667 518.796 68.8C514.929 70.2667 510.263 71 504.796 71ZM577.421 71C572.688 71 568.754 70 565.621 68C562.554 65.9333 560.288 62.8333 558.821 58.7C557.354 54.5 556.621 49.1667 556.621 42.7C556.621 36.1 557.288 30.7333 558.621 26.6C560.021 22.4 562.254 19.3 565.321 17.3C568.388 15.3 572.421 14.3 577.421 14.3C582.221 14.3 586.621 15.4667 590.621 17.8C594.621 20.0667 597.821 23.3333 600.221 27.6C602.621 31.8 603.821 36.8333 603.821 42.7C603.821 48.5667 602.621 53.6333 600.221 57.9C597.821 62.1 594.621 65.3333 590.621 67.6C586.621 69.8667 582.221 71 577.421 71ZM540.921 89.4V15.3H562.421V22.7L562.521 42.7L563.521 62.7V89.4H540.921ZM572.021 53.4C573.688 53.4 575.188 53 576.521 52.2C577.854 51.4 578.921 50.2 579.721 48.6C580.521 47 580.921 45.0333 580.921 42.7C580.921 40.3 580.521 38.3 579.721 36.7C578.921 35.1 577.854 33.9 576.521 33.1C575.188 32.3 573.688 31.9 572.021 31.9C570.354 31.9 568.854 32.3 567.521 33.1C566.188 33.9 565.121 35.1 564.321 36.7C563.521 38.3 563.121 40.3 563.121 42.7C563.121 45.0333 563.521 47 564.321 48.6C565.121 50.2 566.188 51.4 567.521 52.2C568.854 53 570.354 53.4 572.021 53.4ZM641.116 70V15.3H665.016L682.416 49.4H673.016L692.716 15.3H713.916L714.116 70H693.816L693.716 37.1L697.216 39.5L682.116 65.7H672.616L657.516 37.8L661.416 36.8V70H641.116ZM754.113 71C747.446 71 741.613 69.7667 736.613 67.3C731.679 64.8333 727.846 61.4667 725.113 57.2C722.379 52.8667 721.013 48 721.013 42.6C721.013 37.0667 722.346 32.1667 725.013 27.9C727.746 23.6333 731.446 20.3 736.113 17.9C740.846 15.5 746.146 14.3 752.013 14.3C757.413 14.3 762.379 15.3667 766.913 17.5C771.513 19.6333 775.179 22.8 777.913 27C780.713 31.2 782.113 36.4 782.113 42.6C782.113 43.4 782.079 44.3 782.013 45.3C781.946 46.2333 781.879 47.1 781.812 47.9H739.713V37H769.812L761.313 39.9C761.313 37.7667 760.913 35.9667 760.113 34.5C759.379 32.9667 758.346 31.8 757.013 31C755.679 30.1333 754.079 29.7 752.213 29.7C750.346 29.7 748.713 30.1333 747.313 31C745.979 31.8 744.946 32.9667 744.213 34.5C743.479 35.9667 743.113 37.7667 743.113 39.9V43.3C743.113 45.6333 743.579 47.6333 744.513 49.3C745.446 50.9667 746.779 52.2333 748.513 53.1C750.246 53.9 752.346 54.3 754.813 54.3C757.346 54.3 759.413 53.9667 761.013 53.3C762.679 52.6333 764.413 51.6333 766.213 50.3L778.013 62.2C775.346 65.0667 772.046 67.2667 768.113 68.8C764.246 70.2667 759.579 71 754.113 71ZM818.938 71C812.671 71 807.104 69.8 802.238 67.4C797.371 65 793.538 61.6667 790.738 57.4C788.004 53.0667 786.638 48.1333 786.638 42.6C786.638 37.0667 788.004 32.1667 790.738 27.9C793.538 23.6333 797.371 20.3 802.238 17.9C807.104 15.5 812.671 14.3 818.938 14.3C825.604 14.3 831.304 15.7333 836.038 18.6C840.771 21.4667 844.038 25.4333 845.838 30.5L828.338 39.1C827.204 36.5667 825.804 34.7333 824.138 33.6C822.538 32.4667 820.771 31.9 818.838 31.9C817.171 31.9 815.604 32.3 814.138 33.1C812.738 33.9 811.604 35.1 810.738 36.7C809.938 38.2333 809.538 40.2 809.538 42.6C809.538 45 809.938 47 810.738 48.6C811.604 50.2 812.738 51.4 814.138 52.2C815.604 53 817.171 53.4 818.838 53.4C820.771 53.4 822.538 52.8333 824.138 51.7C825.804 50.5667 827.204 48.7333 828.338 46.2L845.838 54.8C844.038 59.8667 840.771 63.8333 836.038 66.7C831.304 69.5667 825.604 71 818.938 71ZM865.142 70V28.1L870.042 32.9H848.442V15.3H904.342V32.9H882.742L887.642 28.1V70H865.142ZM942.743 70V60.3L941.143 57.7V39.3C941.143 36.6333 940.31 34.6 938.643 33.2C937.043 31.8 934.41 31.1 930.743 31.1C928.276 31.1 925.776 31.5 923.243 32.3C920.71 33.0333 918.543 34.0667 916.743 35.4L909.543 20.5C912.743 18.5 916.576 16.9667 921.043 15.9C925.51 14.8333 929.876 14.3 934.143 14.3C943.543 14.3 950.81 16.4 955.943 20.6C961.143 24.8 963.743 31.4667 963.743 40.6V70H942.743ZM927.243 71C922.776 71 919.043 70.2333 916.043 68.7C913.043 67.1667 910.776 65.1333 909.243 62.6C907.71 60 906.943 57.1333 906.943 54C906.943 50.4667 907.843 47.4667 909.643 45C911.443 42.5333 914.176 40.6667 917.843 39.4C921.576 38.1333 926.276 37.5 931.943 37.5H943.343V48.4H935.543C933.143 48.4 931.376 48.8 930.243 49.6C929.176 50.3333 928.643 51.4667 928.643 53C928.643 54.2667 929.11 55.3333 930.043 56.2C931.043 57 932.376 57.4 934.043 57.4C935.576 57.4 936.976 57 938.243 56.2C939.576 55.3333 940.543 54 941.143 52.2L944.043 58.9C943.176 62.9667 941.343 66 938.543 68C935.743 70 931.976 71 927.243 71ZM1002.93 70V15.3H1033.63C1040.97 15.3 1046.67 16.5667 1050.73 19.1C1054.8 21.5667 1056.83 25.0667 1056.83 29.6C1056.83 34 1054.97 37.5333 1051.23 40.2C1047.5 42.8 1042.47 44.1 1036.13 44.1L1037.83 39.5C1044.57 39.5 1049.67 40.7333 1053.13 43.2C1056.67 45.6667 1058.43 49.2667 1058.43 54C1058.43 58.8667 1056.5 62.7667 1052.63 65.7C1048.83 68.5667 1043.03 70 1035.23 70H1002.93ZM1022.73 56H1033.23C1034.9 56 1036.13 55.6333 1036.93 54.9C1037.73 54.1667 1038.13 53.1667 1038.13 51.9C1038.13 50.5667 1037.73 49.6 1036.93 49C1036.13 48.3333 1034.9 48 1033.23 48H1022.73V56ZM1022.73 36.9H1031.63C1033.37 36.9 1034.6 36.5667 1035.33 35.9C1036.13 35.2333 1036.53 34.2667 1036.53 33C1036.53 31.6667 1036.13 30.7333 1035.33 30.2C1034.6 29.6 1033.37 29.3 1031.63 29.3H1022.73V36.9ZM4.3 192V137.3H63V192H40.5V150.2L45.4 154.9H21.9L26.8 150.2V192H4.3ZM101.836 193C95.6359 193 90.1359 191.8 85.3359 189.4C80.6026 186.933 76.8693 183.567 74.1359 179.3C71.4026 175.033 70.0359 170.133 70.0359 164.6C70.0359 159.067 71.4026 154.167 74.1359 149.9C76.8693 145.633 80.6026 142.3 85.3359 139.9C90.1359 137.5 95.6359 136.3 101.836 136.3C108.036 136.3 113.536 137.5 118.336 139.9C123.136 142.3 126.869 145.633 129.536 149.9C132.269 154.167 133.636 159.067 133.636 164.6C133.636 170.133 132.269 175.033 129.536 179.3C126.869 183.567 123.136 186.933 118.336 189.4C113.536 191.8 108.036 193 101.836 193ZM101.836 175.4C103.503 175.4 105.003 175 106.336 174.2C107.669 173.4 108.736 172.2 109.536 170.6C110.336 168.933 110.736 166.933 110.736 164.6C110.736 162.2 110.336 160.233 109.536 158.7C108.736 157.1 107.669 155.9 106.336 155.1C105.003 154.3 103.503 153.9 101.836 153.9C100.169 153.9 98.6693 154.3 97.3359 155.1C96.0026 155.9 94.9359 157.1 94.1359 158.7C93.3359 160.233 92.9359 162.2 92.9359 164.6C92.9359 166.933 93.3359 168.933 94.1359 170.6C94.9359 172.2 96.0026 173.4 97.3359 174.2C98.6693 175 100.169 175.4 101.836 175.4ZM170.128 193C163.461 193 157.628 191.767 152.628 189.3C147.695 186.833 143.861 183.467 141.128 179.2C138.395 174.867 137.028 170 137.028 164.6C137.028 159.067 138.361 154.167 141.028 149.9C143.761 145.633 147.461 142.3 152.128 139.9C156.861 137.5 162.161 136.3 168.028 136.3C173.428 136.3 178.395 137.367 182.928 139.5C187.528 141.633 191.195 144.8 193.928 149C196.728 153.2 198.128 158.4 198.128 164.6C198.128 165.4 198.095 166.3 198.028 167.3C197.961 168.233 197.895 169.1 197.828 169.9H155.728V159H185.828L177.328 161.9C177.328 159.767 176.928 157.967 176.128 156.5C175.395 154.967 174.361 153.8 173.028 153C171.695 152.133 170.095 151.7 168.228 151.7C166.361 151.7 164.728 152.133 163.328 153C161.995 153.8 160.961 154.967 160.228 156.5C159.495 157.967 159.128 159.767 159.128 161.9V165.3C159.128 167.633 159.595 169.633 160.528 171.3C161.461 172.967 162.795 174.233 164.528 175.1C166.261 175.9 168.361 176.3 170.828 176.3C173.361 176.3 175.428 175.967 177.028 175.3C178.695 174.633 180.428 173.633 182.228 172.3L194.028 184.2C191.361 187.067 188.061 189.267 184.128 190.8C180.261 192.267 175.595 193 170.128 193ZM227.453 193.3C232.92 193.3 237.886 192.633 242.353 191.3C246.886 189.967 250.52 187.967 253.253 185.3C255.986 182.633 257.353 179.333 257.353 175.4C257.353 171.333 255.62 168.1 252.153 165.7C248.686 163.3 244.02 162.1 238.153 162.1L237.653 166.1C241.053 166.1 244.12 165.467 246.853 164.2C249.586 162.933 251.753 161.233 253.353 159.1C255.02 156.967 255.853 154.567 255.853 151.9C255.853 148.233 254.553 145.233 251.953 142.9C249.353 140.567 245.853 138.833 241.453 137.7C237.053 136.567 232.186 136.033 226.853 136.1C223.053 136.167 219.12 136.633 215.053 137.5C211.053 138.367 207.186 139.533 203.453 141L208.553 155.3C211.686 154.233 214.72 153.4 217.653 152.8C220.586 152.2 223.386 151.9 226.053 151.9C227.853 151.9 229.253 152.033 230.253 152.3C231.32 152.567 232.053 152.933 232.453 153.4C232.92 153.867 233.153 154.433 233.153 155.1C233.153 155.767 232.986 156.333 232.653 156.8C232.32 157.267 231.786 157.6 231.053 157.8C230.386 158 229.486 158.1 228.353 158.1H217.953V170.7H230.453C231.986 170.7 233.053 170.933 233.653 171.4C234.32 171.8 234.653 172.533 234.653 173.6C234.653 174.467 234.32 175.167 233.653 175.7C232.986 176.233 232.053 176.633 230.853 176.9C229.72 177.167 228.386 177.3 226.853 177.3C223.453 177.3 220.153 177.067 216.953 176.6C213.82 176.133 210.686 175.333 207.553 174.2L201.853 189.1C205.986 190.567 210.22 191.633 214.553 192.3C218.953 192.967 223.253 193.3 227.453 193.3ZM302.754 182.3V154.9H291.454L291.354 158.3C291.287 160.633 291.154 162.8 290.954 164.8C290.821 166.8 290.521 168.6 290.054 170.2C289.587 171.733 288.887 173.1 287.954 174.3C287.087 175.433 285.854 176.367 284.254 177.1L262.154 174.3C263.887 174.3 265.321 173.867 266.454 173C267.587 172.067 268.454 170.8 269.054 169.2C269.721 167.533 270.187 165.633 270.454 163.5C270.787 161.367 270.987 159.067 271.054 156.6L271.754 137.3H325.254V182.3H302.754ZM260.554 202.8V174.3H332.554V202.8H311.654V192H281.454V202.8H260.554ZM368.663 193C361.997 193 356.163 191.767 351.163 189.3C346.23 186.833 342.397 183.467 339.663 179.2C336.93 174.867 335.563 170 335.563 164.6C335.563 159.067 336.897 154.167 339.563 149.9C342.297 145.633 345.997 142.3 350.663 139.9C355.397 137.5 360.697 136.3 366.563 136.3C371.963 136.3 376.93 137.367 381.463 139.5C386.063 141.633 389.73 144.8 392.463 149C395.263 153.2 396.663 158.4 396.663 164.6C396.663 165.4 396.63 166.3 396.563 167.3C396.497 168.233 396.43 169.1 396.363 169.9H354.263V159H384.363L375.863 161.9C375.863 159.767 375.463 157.967 374.663 156.5C373.93 154.967 372.897 153.8 371.563 153C370.23 152.133 368.63 151.7 366.763 151.7C364.897 151.7 363.263 152.133 361.863 153C360.53 153.8 359.497 154.967 358.763 156.5C358.03 157.967 357.663 159.767 357.663 161.9V165.3C357.663 167.633 358.13 169.633 359.063 171.3C359.997 172.967 361.33 174.233 363.063 175.1C364.797 175.9 366.897 176.3 369.363 176.3C371.897 176.3 373.963 175.967 375.563 175.3C377.23 174.633 378.963 173.633 380.763 172.3L392.563 184.2C389.897 187.067 386.597 189.267 382.663 190.8C378.797 192.267 374.13 193 368.663 193ZM402.988 208L411.388 179.9L414.688 192.5C410.822 192.5 407.655 191.4 405.188 189.2C402.722 186.933 401.488 183.867 401.488 180C401.488 176.067 402.722 172.967 405.188 170.7C407.722 168.367 410.888 167.2 414.688 167.2C418.488 167.2 421.622 168.367 424.088 170.7C426.622 172.967 427.888 176.067 427.888 180C427.888 181.067 427.788 182.133 427.588 183.2C427.455 184.267 427.122 185.567 426.588 187.1C426.055 188.567 425.188 190.567 423.988 193.1L416.988 208H402.988ZM465.14 192V137.3H495.84C503.173 137.3 508.873 138.567 512.94 141.1C517.007 143.567 519.04 147.067 519.04 151.6C519.04 156 517.173 159.533 513.44 162.2C509.707 164.8 504.673 166.1 498.34 166.1L500.04 161.5C506.773 161.5 511.873 162.733 515.34 165.2C518.873 167.667 520.64 171.267 520.64 176C520.64 180.867 518.707 184.767 514.84 187.7C511.04 190.567 505.24 192 497.44 192H465.14ZM484.94 178H495.44C497.107 178 498.34 177.633 499.14 176.9C499.94 176.167 500.34 175.167 500.34 173.9C500.34 172.567 499.94 171.6 499.14 171C498.34 170.333 497.107 170 495.44 170H484.94V178ZM484.94 158.9H493.84C495.573 158.9 496.807 158.567 497.54 157.9C498.34 157.233 498.74 156.267 498.74 155C498.74 153.667 498.34 152.733 497.54 152.2C496.807 151.6 495.573 151.3 493.84 151.3H484.94V158.9ZM586.93 192V137.3H609.43V192H586.93ZM561.83 153.8C569.164 153.8 574.63 155.4 578.23 158.6C581.83 161.8 583.63 166.333 583.63 172.2C583.63 178.333 581.497 183.167 577.23 186.7C573.03 190.233 566.964 192 559.03 192H528.03V137.3H550.53V153.8H561.83ZM556.73 176.8C558.264 176.8 559.464 176.4 560.33 175.6C561.197 174.8 561.63 173.533 561.63 171.8C561.63 170.067 561.197 168.833 560.33 168.1C559.464 167.367 558.264 167 556.73 167H550.53V176.8H556.73ZM658.223 182.3V154.9H646.923L646.823 158.3C646.756 160.633 646.623 162.8 646.423 164.8C646.289 166.8 645.989 168.6 645.523 170.2C645.056 171.733 644.356 173.1 643.423 174.3C642.556 175.433 641.323 176.367 639.723 177.1L617.623 174.3C619.356 174.3 620.789 173.867 621.923 173C623.056 172.067 623.923 170.8 624.523 169.2C625.189 167.533 625.656 165.633 625.923 163.5C626.256 161.367 626.456 159.067 626.523 156.6L627.223 137.3H680.723V182.3H658.223ZM616.023 202.8V174.3H688.023V202.8H667.123V192H636.923V202.8H616.023ZM726.532 192V182.3L724.932 179.7V161.3C724.932 158.633 724.099 156.6 722.432 155.2C720.832 153.8 718.199 153.1 714.532 153.1C712.065 153.1 709.565 153.5 707.032 154.3C704.499 155.033 702.332 156.067 700.532 157.4L693.332 142.5C696.532 140.5 700.365 138.967 704.832 137.9C709.299 136.833 713.665 136.3 717.932 136.3C727.332 136.3 734.599 138.4 739.732 142.6C744.932 146.8 747.532 153.467 747.532 162.6V192H726.532ZM711.032 193C706.565 193 702.832 192.233 699.832 190.7C696.832 189.167 694.565 187.133 693.032 184.6C691.499 182 690.732 179.133 690.732 176C690.732 172.467 691.632 169.467 693.432 167C695.232 164.533 697.965 162.667 701.632 161.4C705.365 160.133 710.065 159.5 715.732 159.5H727.132V170.4H719.332C716.932 170.4 715.165 170.8 714.032 171.6C712.965 172.333 712.432 173.467 712.432 175C712.432 176.267 712.899 177.333 713.832 178.2C714.832 179 716.165 179.4 717.832 179.4C719.365 179.4 720.765 179 722.032 178.2C723.365 177.333 724.332 176 724.932 174.2L727.832 180.9C726.965 184.967 725.132 188 722.332 190C719.532 192 715.765 193 711.032 193ZM769.341 192V150.1L774.241 154.9H752.641V137.3H808.541V154.9H786.941L791.841 150.1V192H769.341ZM849.642 153.8C856.976 153.8 862.609 155.4 866.542 158.6C870.476 161.8 872.442 166.333 872.442 172.2C872.442 178.333 870.142 183.167 865.542 186.7C861.009 190.233 854.776 192 846.842 192H815.042V137.3H837.542V153.8H849.642ZM844.542 176.8C846.076 176.8 847.276 176.4 848.142 175.6C849.009 174.8 849.442 173.533 849.442 171.8C849.442 170.067 849.009 168.833 848.142 168.1C847.276 167.367 846.076 167 844.542 167H837.542V176.8H844.542ZM908.89 192V137.3H931.39V156.5H946.79V137.3H969.29V192H946.79V174.2H931.39V192H908.89ZM1008.09 193C1001.89 193 996.386 191.8 991.586 189.4C986.853 186.933 983.119 183.567 980.386 179.3C977.653 175.033 976.286 170.133 976.286 164.6C976.286 159.067 977.653 154.167 980.386 149.9C983.119 145.633 986.853 142.3 991.586 139.9C996.386 137.5 1001.89 136.3 1008.09 136.3C1014.29 136.3 1019.79 137.5 1024.59 139.9C1029.39 142.3 1033.12 145.633 1035.79 149.9C1038.52 154.167 1039.89 159.067 1039.89 164.6C1039.89 170.133 1038.52 175.033 1035.79 179.3C1033.12 183.567 1029.39 186.933 1024.59 189.4C1019.79 191.8 1014.29 193 1008.09 193ZM1008.09 175.4C1009.75 175.4 1011.25 175 1012.59 174.2C1013.92 173.4 1014.99 172.2 1015.79 170.6C1016.59 168.933 1016.99 166.933 1016.99 164.6C1016.99 162.2 1016.59 160.233 1015.79 158.7C1014.99 157.1 1013.92 155.9 1012.59 155.1C1011.25 154.3 1009.75 153.9 1008.09 153.9C1006.42 153.9 1004.92 154.3 1003.59 155.1C1002.25 155.9 1001.19 157.1 1000.39 158.7C999.586 160.233 999.186 162.2 999.186 164.6C999.186 166.933 999.586 168.933 1000.39 170.6C1001.19 172.2 1002.25 173.4 1003.59 174.2C1004.92 175 1006.42 175.4 1008.09 175.4ZM1046.88 192V137.3H1070.78L1088.18 171.4H1078.78L1098.48 137.3H1119.68L1119.88 192H1099.58L1099.48 159.1L1102.98 161.5L1087.88 187.7H1078.38L1063.28 159.8L1067.18 158.8V192H1046.88ZM1159.87 193C1153.21 193 1147.37 191.767 1142.37 189.3C1137.44 186.833 1133.61 183.467 1130.87 179.2C1128.14 174.867 1126.77 170 1126.77 164.6C1126.77 159.067 1128.11 154.167 1130.77 149.9C1133.51 145.633 1137.21 142.3 1141.87 139.9C1146.61 137.5 1151.91 136.3 1157.77 136.3C1163.17 136.3 1168.14 137.367 1172.67 139.5C1177.27 141.633 1180.94 144.8 1183.67 149C1186.47 153.2 1187.87 158.4 1187.87 164.6C1187.87 165.4 1187.84 166.3 1187.77 167.3C1187.71 168.233 1187.64 169.1 1187.57 169.9H1145.47V159H1175.57L1167.07 161.9C1167.07 159.767 1166.67 157.967 1165.87 156.5C1165.14 154.967 1164.11 153.8 1162.77 153C1161.44 152.133 1159.84 151.7 1157.97 151.7C1156.11 151.7 1154.47 152.133 1153.07 153C1151.74 153.8 1150.71 154.967 1149.97 156.5C1149.24 157.967 1148.87 159.767 1148.87 161.9V165.3C1148.87 167.633 1149.34 169.633 1150.27 171.3C1151.21 172.967 1152.54 174.233 1154.27 175.1C1156.01 175.9 1158.11 176.3 1160.57 176.3C1163.11 176.3 1165.17 175.967 1166.77 175.3C1168.44 174.633 1170.17 173.633 1171.97 172.3L1183.77 184.2C1181.11 187.067 1177.81 189.267 1173.87 190.8C1170.01 192.267 1165.34 193 1159.87 193ZM1232.5 193C1227.77 193 1223.83 192 1220.7 190C1217.63 187.933 1215.37 184.833 1213.9 180.7C1212.43 176.5 1211.7 171.167 1211.7 164.7C1211.7 158.1 1212.37 152.733 1213.7 148.6C1215.1 144.4 1217.33 141.3 1220.4 139.3C1223.47 137.3 1227.5 136.3 1232.5 136.3C1237.3 136.3 1241.7 137.467 1245.7 139.8C1249.7 142.067 1252.9 145.333 1255.3 149.6C1257.7 153.8 1258.9 158.833 1258.9 164.7C1258.9 170.567 1257.7 175.633 1255.3 179.9C1252.9 184.1 1249.7 187.333 1245.7 189.6C1241.7 191.867 1237.3 193 1232.5 193ZM1196 211.4V137.3H1217.5V144.7L1217.6 164.7L1218.6 184.7V211.4H1196ZM1227.1 175.4C1228.77 175.4 1230.27 175 1231.6 174.2C1232.93 173.4 1234 172.2 1234.8 170.6C1235.6 169 1236 167.033 1236 164.7C1236 162.3 1235.6 160.3 1234.8 158.7C1234 157.1 1232.93 155.9 1231.6 155.1C1230.27 154.3 1228.77 153.9 1227.1 153.9C1225.43 153.9 1223.93 154.3 1222.6 155.1C1221.27 155.9 1220.2 157.1 1219.4 158.7C1218.6 160.3 1218.2 162.3 1218.2 164.7C1218.2 167.033 1218.6 169 1219.4 170.6C1220.2 172.2 1221.27 173.4 1222.6 174.2C1223.93 175 1225.43 175.4 1227.1 175.4ZM42.1 314L27.1 288.9L45.3 278.3L68.7 314H42.1ZM4.3 314V259.3H26.9V314H4.3ZM20.3 295.8V278.5H40.7V295.8H20.3ZM47.6 289.1L26.4 287.1L43.8 259.3H67.6L47.6 289.1ZM83.6063 334.4C80.6063 334.4 77.5396 333.933 74.4063 333C71.3396 332.133 68.8729 330.967 67.0063 329.5L74.5063 314C75.6396 314.867 76.9063 315.567 78.3063 316.1C79.7729 316.633 81.1729 316.9 82.5063 316.9C84.5063 316.9 86.0396 316.467 87.1063 315.6C88.1729 314.8 89.0396 313.567 89.7063 311.9L92.0063 306.1L93.6063 303.9L111.106 259.3H132.506L110.006 315.1C108.006 320.1 105.673 324 103.006 326.8C100.406 329.6 97.4729 331.567 94.2063 332.7C91.0063 333.833 87.4729 334.4 83.6063 334.4ZM88.9063 316.5L65.1062 259.3H88.3063L104.706 301.9L88.9063 316.5ZM137.503 314V259.3H196.203V314H173.703V272.2L178.603 276.9H155.103L160.003 272.2V314H137.503ZM236.339 315C229.672 315 223.839 313.767 218.839 311.3C213.906 308.833 210.072 305.467 207.339 301.2C204.606 296.867 203.239 292 203.239 286.6C203.239 281.067 204.572 276.167 207.239 271.9C209.972 267.633 213.672 264.3 218.339 261.9C223.072 259.5 228.372 258.3 234.239 258.3C239.639 258.3 244.606 259.367 249.139 261.5C253.739 263.633 257.406 266.8 260.139 271C262.939 275.2 264.339 280.4 264.339 286.6C264.339 287.4 264.306 288.3 264.239 289.3C264.172 290.233 264.106 291.1 264.039 291.9H221.939V281H252.039L243.539 283.9C243.539 281.767 243.139 279.967 242.339 278.5C241.606 276.967 240.572 275.8 239.239 275C237.906 274.133 236.306 273.7 234.439 273.7C232.572 273.7 230.939 274.133 229.539 275C228.206 275.8 227.172 276.967 226.439 278.5C225.706 279.967 225.339 281.767 225.339 283.9V287.3C225.339 289.633 225.806 291.633 226.739 293.3C227.672 294.967 229.006 296.233 230.739 297.1C232.472 297.9 234.572 298.3 237.039 298.3C239.572 298.3 241.639 297.967 243.239 297.3C244.906 296.633 246.639 295.633 248.439 294.3L260.239 306.2C257.572 309.067 254.272 311.267 250.339 312.8C246.472 314.267 241.806 315 236.339 315ZM302.445 314V259.3H333.145C340.478 259.3 346.178 260.567 350.245 263.1C354.311 265.567 356.345 269.067 356.345 273.6C356.345 278 354.478 281.533 350.745 284.2C347.011 286.8 341.978 288.1 335.645 288.1L337.345 283.5C344.078 283.5 349.178 284.733 352.645 287.2C356.178 289.667 357.945 293.267 357.945 298C357.945 302.867 356.011 306.767 352.145 309.7C348.345 312.567 342.545 314 334.745 314H302.445ZM322.245 300H332.745C334.411 300 335.645 299.633 336.445 298.9C337.245 298.167 337.645 297.167 337.645 295.9C337.645 294.567 337.245 293.6 336.445 293C335.645 292.333 334.411 292 332.745 292H322.245V300ZM322.245 280.9H331.145C332.878 280.9 334.111 280.567 334.845 279.9C335.645 279.233 336.045 278.267 336.045 277C336.045 275.667 335.645 274.733 334.845 274.2C334.111 273.6 332.878 273.3 331.145 273.3H322.245V280.9ZM433.116 314L418.116 288.9L436.316 278.3L459.716 314H433.116ZM395.316 314V259.3H417.916V314H395.316ZM411.316 295.8V278.5H431.716V295.8H411.316ZM438.616 289.1L417.416 287.1L434.816 259.3H458.616L438.616 289.1ZM491.484 315C485.284 315 479.784 313.8 474.984 311.4C470.251 308.933 466.518 305.567 463.784 301.3C461.051 297.033 459.684 292.133 459.684 286.6C459.684 281.067 461.051 276.167 463.784 271.9C466.518 267.633 470.251 264.3 474.984 261.9C479.784 259.5 485.284 258.3 491.484 258.3C497.684 258.3 503.184 259.5 507.984 261.9C512.784 264.3 516.518 267.633 519.184 271.9C521.918 276.167 523.284 281.067 523.284 286.6C523.284 292.133 521.918 297.033 519.184 301.3C516.518 305.567 512.784 308.933 507.984 311.4C503.184 313.8 497.684 315 491.484 315ZM491.484 297.4C493.151 297.4 494.651 297 495.984 296.2C497.318 295.4 498.384 294.2 499.184 292.6C499.984 290.933 500.384 288.933 500.384 286.6C500.384 284.2 499.984 282.233 499.184 280.7C498.384 279.1 497.318 277.9 495.984 277.1C494.651 276.3 493.151 275.9 491.484 275.9C489.818 275.9 488.318 276.3 486.984 277.1C485.651 277.9 484.584 279.1 483.784 280.7C482.984 282.233 482.584 284.2 482.584 286.6C482.584 288.933 482.984 290.933 483.784 292.6C484.584 294.2 485.651 295.4 486.984 296.2C488.318 297 489.818 297.4 491.484 297.4ZM540.923 314V272.1L545.823 276.9H524.223V259.3H580.123V276.9H558.523L563.423 272.1V314H540.923ZM612.773 315C606.573 315 601.073 313.8 596.273 311.4C591.54 308.933 587.807 305.567 585.073 301.3C582.34 297.033 580.973 292.133 580.973 286.6C580.973 281.067 582.34 276.167 585.073 271.9C587.807 267.633 591.54 264.3 596.273 261.9C601.073 259.5 606.573 258.3 612.773 258.3C618.973 258.3 624.473 259.5 629.273 261.9C634.073 264.3 637.807 267.633 640.473 271.9C643.207 276.167 644.573 281.067 644.573 286.6C644.573 292.133 643.207 297.033 640.473 301.3C637.807 305.567 634.073 308.933 629.273 311.4C624.473 313.8 618.973 315 612.773 315ZM612.773 297.4C614.44 297.4 615.94 297 617.273 296.2C618.607 295.4 619.673 294.2 620.473 292.6C621.273 290.933 621.673 288.933 621.673 286.6C621.673 284.2 621.273 282.233 620.473 280.7C619.673 279.1 618.607 277.9 617.273 277.1C615.94 276.3 614.44 275.9 612.773 275.9C611.107 275.9 609.607 276.3 608.273 277.1C606.94 277.9 605.873 279.1 605.073 280.7C604.273 282.233 603.873 284.2 603.873 286.6C603.873 288.933 604.273 290.933 605.073 292.6C605.873 294.2 606.94 295.4 608.273 296.2C609.607 297 611.107 297.4 612.773 297.4ZM688.066 315C683.332 315 679.399 314 676.266 312C673.199 309.933 670.932 306.833 669.466 302.7C667.999 298.5 667.266 293.167 667.266 286.7C667.266 280.1 667.932 274.733 669.266 270.6C670.666 266.4 672.899 263.3 675.966 261.3C679.032 259.3 683.066 258.3 688.066 258.3C692.866 258.3 697.266 259.467 701.266 261.8C705.266 264.067 708.466 267.333 710.866 271.6C713.266 275.8 714.466 280.833 714.466 286.7C714.466 292.567 713.266 297.633 710.866 301.9C708.466 306.1 705.266 309.333 701.266 311.6C697.266 313.867 692.866 315 688.066 315ZM651.566 333.4V259.3H673.066V266.7L673.166 286.7L674.166 306.7V333.4H651.566ZM682.666 297.4C684.332 297.4 685.832 297 687.166 296.2C688.499 295.4 689.566 294.2 690.366 292.6C691.166 291 691.566 289.033 691.566 286.7C691.566 284.3 691.166 282.3 690.366 280.7C689.566 279.1 688.499 277.9 687.166 277.1C685.832 276.3 684.332 275.9 682.666 275.9C680.999 275.9 679.499 276.3 678.166 277.1C676.832 277.9 675.766 279.1 674.966 280.7C674.166 282.3 673.766 284.3 673.766 286.7C673.766 289.033 674.166 291 674.966 292.6C675.766 294.2 676.832 295.4 678.166 296.2C679.499 297 680.999 297.4 682.666 297.4ZM749.98 315C743.78 315 738.28 313.8 733.48 311.4C728.747 308.933 725.014 305.567 722.28 301.3C719.547 297.033 718.18 292.133 718.18 286.6C718.18 281.067 719.547 276.167 722.28 271.9C725.014 267.633 728.747 264.3 733.48 261.9C738.28 259.5 743.78 258.3 749.98 258.3C756.18 258.3 761.68 259.5 766.48 261.9C771.28 264.3 775.014 267.633 777.68 271.9C780.414 276.167 781.78 281.067 781.78 286.6C781.78 292.133 780.414 297.033 777.68 301.3C775.014 305.567 771.28 308.933 766.48 311.4C761.68 313.8 756.18 315 749.98 315ZM749.98 297.4C751.647 297.4 753.147 297 754.48 296.2C755.814 295.4 756.88 294.2 757.68 292.6C758.48 290.933 758.88 288.933 758.88 286.6C758.88 284.2 758.48 282.233 757.68 280.7C756.88 279.1 755.814 277.9 754.48 277.1C753.147 276.3 751.647 275.9 749.98 275.9C748.314 275.9 746.814 276.3 745.48 277.1C744.147 277.9 743.08 279.1 742.28 280.7C741.48 282.233 741.08 284.2 741.08 286.6C741.08 288.933 741.48 290.933 742.28 292.6C743.08 294.2 744.147 295.4 745.48 296.2C746.814 297 748.314 297.4 749.98 297.4ZM788.773 314V259.3H812.673L830.073 293.4H820.673L840.373 259.3H861.573L861.773 314H841.473L841.373 281.1L844.873 283.5L829.773 309.7H820.273L805.173 281.8L809.073 280.8V314H788.773ZM961.83 315.6C957.43 315.6 953.263 315 949.33 313.8C945.463 312.6 942.063 310.633 939.13 307.9C936.196 305.167 933.896 301.567 932.23 297.1C930.563 292.633 929.73 287.133 929.73 280.6C929.73 276.467 930.096 272.633 930.83 269.1C931.563 265.5 932.696 262.2 934.23 259.2C935.763 256.2 937.73 253.567 940.13 251.3C942.53 248.967 945.396 247.033 948.73 245.5C952.063 243.9 955.863 242.7 960.13 241.9L987.33 237L990.33 255.5L967.33 259.6C965.863 259.867 964.363 260.2 962.83 260.6C961.296 260.933 959.83 261.433 958.43 262.1C957.03 262.7 955.763 263.567 954.63 264.7C953.496 265.833 952.596 267.3 951.93 269.1C951.33 270.9 951.03 273.133 951.03 275.8C951.03 276.6 951.063 277.267 951.13 277.8C951.196 278.333 951.263 278.967 951.33 279.7C951.396 280.367 951.43 281.433 951.43 282.9L945.73 277.9C947.463 275.5 949.43 273.467 951.63 271.8C953.83 270.067 956.33 268.733 959.13 267.8C961.93 266.867 965.096 266.4 968.63 266.4C973.963 266.4 978.496 267.4 982.23 269.4C986.03 271.4 988.896 274.167 990.83 277.7C992.83 281.167 993.83 285.133 993.83 289.6C993.83 295.067 992.43 299.733 989.63 303.6C986.83 307.467 983.03 310.433 978.23 312.5C973.43 314.567 967.963 315.6 961.83 315.6ZM962.23 298.9C963.963 298.9 965.463 298.533 966.73 297.8C967.996 297 968.996 295.933 969.73 294.6C970.463 293.267 970.83 291.767 970.83 290.1C970.83 288.367 970.463 286.9 969.73 285.7C968.996 284.5 967.963 283.567 966.63 282.9C965.363 282.233 963.896 281.9 962.23 281.9C960.496 281.9 958.963 282.233 957.63 282.9C956.296 283.567 955.263 284.5 954.53 285.7C953.796 286.833 953.43 288.2 953.43 289.8C953.43 291.533 953.796 293.1 954.53 294.5C955.263 295.833 956.296 296.9 957.63 297.7C958.963 298.5 960.496 298.9 962.23 298.9ZM1012.22 334.4C1009.22 334.4 1006.15 333.933 1003.02 333C999.953 332.133 997.486 330.967 995.62 329.5L1003.12 314C1004.25 314.867 1005.52 315.567 1006.92 316.1C1008.39 316.633 1009.79 316.9 1011.12 316.9C1013.12 316.9 1014.65 316.467 1015.72 315.6C1016.79 314.8 1017.65 313.567 1018.32 311.9L1020.62 306.1L1022.22 303.9L1039.72 259.3H1061.12L1038.62 315.1C1036.62 320.1 1034.29 324 1031.62 326.8C1029.02 329.6 1026.09 331.567 1022.82 332.7C1019.62 333.833 1016.09 334.4 1012.22 334.4ZM1017.52 316.5L993.72 259.3H1016.92L1033.32 301.9L1017.52 316.5ZM1099.34 304.3V276.9H1088.04L1087.94 280.3C1087.87 282.633 1087.74 284.8 1087.54 286.8C1087.4 288.8 1087.1 290.6 1086.64 292.2C1086.17 293.733 1085.47 295.1 1084.54 296.3C1083.67 297.433 1082.44 298.367 1080.84 299.1L1058.74 296.3C1060.47 296.3 1061.9 295.867 1063.04 295C1064.17 294.067 1065.04 292.8 1065.64 291.2C1066.3 289.533 1066.77 287.633 1067.04 285.5C1067.37 283.367 1067.57 281.067 1067.64 278.6L1068.34 259.3H1121.84V304.3H1099.34ZM1057.14 324.8V296.3H1129.14V324.8H1108.24V314H1078.04V324.8H1057.14ZM1165.25 315C1158.58 315 1152.75 313.767 1147.75 311.3C1142.81 308.833 1138.98 305.467 1136.25 301.2C1133.51 296.867 1132.15 292 1132.15 286.6C1132.15 281.067 1133.48 276.167 1136.15 271.9C1138.88 267.633 1142.58 264.3 1147.25 261.9C1151.98 259.5 1157.28 258.3 1163.15 258.3C1168.55 258.3 1173.51 259.367 1178.05 261.5C1182.65 263.633 1186.31 266.8 1189.05 271C1191.85 275.2 1193.25 280.4 1193.25 286.6C1193.25 287.4 1193.21 288.3 1193.15 289.3C1193.08 290.233 1193.01 291.1 1192.95 291.9H1150.85V281H1180.95L1172.45 283.9C1172.45 281.767 1172.05 279.967 1171.25 278.5C1170.51 276.967 1169.48 275.8 1168.15 275C1166.81 274.133 1165.21 273.7 1163.35 273.7C1161.48 273.7 1159.85 274.133 1158.45 275C1157.11 275.8 1156.08 276.967 1155.35 278.5C1154.61 279.967 1154.25 281.767 1154.25 283.9V287.3C1154.25 289.633 1154.71 291.633 1155.65 293.3C1156.58 294.967 1157.91 296.233 1159.65 297.1C1161.38 297.9 1163.48 298.3 1165.95 298.3C1168.48 298.3 1170.55 297.967 1172.15 297.3C1173.81 296.633 1175.55 295.633 1177.35 294.3L1189.15 306.2C1186.48 309.067 1183.18 311.267 1179.25 312.8C1175.38 314.267 1170.71 315 1165.25 315ZM1212.41 314V272.1L1217.31 276.9H1195.71V259.3H1251.61V276.9H1230.01L1234.91 272.1V314H1212.41ZM4.3 436V381.3H26.8V400.5H42.2V381.3H64.7V436H42.2V418.2H26.8V436H4.3ZM107.196 436V426.3L105.596 423.7V405.3C105.596 402.633 104.763 400.6 103.096 399.2C101.496 397.8 98.8628 397.1 95.1961 397.1C92.7294 397.1 90.2294 397.5 87.6961 398.3C85.1628 399.033 82.9961 400.067 81.1961 401.4L73.9961 386.5C77.1961 384.5 81.0294 382.967 85.4961 381.9C89.9628 380.833 94.3294 380.3 98.5961 380.3C107.996 380.3 115.263 382.4 120.396 386.6C125.596 390.8 128.196 397.467 128.196 406.6V436H107.196ZM91.6961 437C87.2294 437 83.4961 436.233 80.4961 434.7C77.4961 433.167 75.2294 431.133 73.6961 428.6C72.1628 426 71.3961 423.133 71.3961 420C71.3961 416.467 72.2961 413.467 74.0961 411C75.8961 408.533 78.6294 406.667 82.2961 405.4C86.0294 404.133 90.7294 403.5 96.3961 403.5H107.796V414.4H99.9961C97.5961 414.4 95.8294 414.8 94.6961 415.6C93.6294 416.333 93.0961 417.467 93.0961 419C93.0961 420.267 93.5628 421.333 94.4961 422.2C95.4961 423 96.8294 423.4 98.4961 423.4C100.029 423.4 101.429 423 102.696 422.2C104.029 421.333 104.996 420 105.596 418.2L108.496 424.9C107.629 428.967 105.796 432 102.996 434C100.196 436 96.4294 437 91.6961 437ZM131.805 436L157.605 402.2L157.005 415.2L132.405 381.3H157.905L170.005 399.4L160.605 400.1L173.905 381.3H197.605L172.905 414.1V401.6L198.105 436H172.205L159.705 416.7L169.205 418L156.305 436H131.805ZM229.863 437C223.663 437 218.163 435.8 213.363 433.4C208.63 430.933 204.897 427.567 202.163 423.3C199.43 419.033 198.063 414.133 198.063 408.6C198.063 403.067 199.43 398.167 202.163 393.9C204.897 389.633 208.63 386.3 213.363 383.9C218.163 381.5 223.663 380.3 229.863 380.3C236.063 380.3 241.563 381.5 246.363 383.9C251.163 386.3 254.897 389.633 257.563 393.9C260.297 398.167 261.663 403.067 261.663 408.6C261.663 414.133 260.297 419.033 257.563 423.3C254.897 427.567 251.163 430.933 246.363 433.4C241.563 435.8 236.063 437 229.863 437ZM229.863 419.4C231.53 419.4 233.03 419 234.363 418.2C235.697 417.4 236.763 416.2 237.563 414.6C238.363 412.933 238.763 410.933 238.763 408.6C238.763 406.2 238.363 404.233 237.563 402.7C236.763 401.1 235.697 399.9 234.363 399.1C233.03 398.3 231.53 397.9 229.863 397.9C228.197 397.9 226.697 398.3 225.363 399.1C224.03 399.9 222.963 401.1 222.163 402.7C221.363 404.233 220.963 406.2 220.963 408.6C220.963 410.933 221.363 412.933 222.163 414.6C222.963 416.2 224.03 417.4 225.363 418.2C226.697 419 228.197 419.4 229.863 419.4ZM305.684 426.3V398.9H294.384L294.284 402.3C294.217 404.633 294.084 406.8 293.884 408.8C293.75 410.8 293.45 412.6 292.984 414.2C292.517 415.733 291.817 417.1 290.884 418.3C290.017 419.433 288.784 420.367 287.184 421.1L265.084 418.3C266.817 418.3 268.25 417.867 269.384 417C270.517 416.067 271.384 414.8 271.984 413.2C272.65 411.533 273.117 409.633 273.384 407.5C273.717 405.367 273.917 403.067 273.984 400.6L274.684 381.3H328.184V426.3H305.684ZM263.484 446.8V418.3H335.484V446.8H314.584V436H284.384V446.8H263.484ZM342.093 436V381.3H364.593V406L383.493 381.3H404.293V436H381.793V411.2L362.993 436H342.093ZM427.447 436V394.1L432.347 398.9H410.747V381.3H466.647V398.9H445.047L449.947 394.1V436H427.447ZM499.797 437C493.53 437 487.964 435.8 483.097 433.4C478.23 431 474.397 427.667 471.597 423.4C468.864 419.067 467.497 414.133 467.497 408.6C467.497 403.067 468.864 398.167 471.597 393.9C474.397 389.633 478.23 386.3 483.097 383.9C487.964 381.5 493.53 380.3 499.797 380.3C506.464 380.3 512.164 381.733 516.897 384.6C521.63 387.467 524.897 391.433 526.697 396.5L509.197 405.1C508.064 402.567 506.664 400.733 504.997 399.6C503.397 398.467 501.63 397.9 499.697 397.9C498.03 397.9 496.464 398.3 494.997 399.1C493.597 399.9 492.464 401.1 491.597 402.7C490.797 404.233 490.397 406.2 490.397 408.6C490.397 411 490.797 413 491.597 414.6C492.464 416.2 493.597 417.4 494.997 418.2C496.464 419 498.03 419.4 499.697 419.4C501.63 419.4 503.397 418.833 504.997 417.7C506.664 416.567 508.064 414.733 509.197 412.2L526.697 420.8C524.897 425.867 521.63 429.833 516.897 432.7C512.164 435.567 506.464 437 499.797 437ZM566.137 436V418.8L568.937 422.1H556.437C547.97 422.1 541.27 420.4 536.337 417C531.403 413.533 528.937 408.667 528.937 402.4C528.937 395.733 531.47 390.567 536.537 386.9C541.67 383.167 548.603 381.3 557.337 381.3H586.137V436H566.137ZM527.837 436L542.137 415.3H564.937L551.737 436H527.837ZM566.137 412.1V393.4L568.937 398.8H557.837C555.97 398.8 554.537 399.167 553.537 399.9C552.537 400.567 552.037 401.667 552.037 403.2C552.037 406.4 553.97 408 557.837 408H568.937L566.137 412.1ZM640.761 415.9V401.2H666.961V415.9H640.761ZM648.661 379.9C654.928 379.9 660.461 381.133 665.261 383.6C670.061 386 673.828 389.367 676.561 393.7C679.294 397.967 680.661 402.933 680.661 408.6C680.661 414.267 679.294 419.267 676.561 423.6C673.828 427.933 670.061 431.333 665.261 433.8C660.461 436.2 654.928 437.4 648.661 437.4C642.794 437.4 637.594 436.433 633.061 434.5C628.528 432.5 624.794 429.667 621.861 426L634.761 414.4C636.494 416.4 638.394 417.967 640.461 419.1C642.594 420.233 644.994 420.8 647.661 420.8C650.261 420.8 652.461 420.333 654.261 419.4C656.128 418.4 657.528 417 658.461 415.2C659.461 413.333 659.961 411.133 659.961 408.6C659.961 406.067 659.461 403.9 658.461 402.1C657.528 400.233 656.128 398.833 654.261 397.9C652.461 396.9 650.261 396.4 647.661 396.4C644.994 396.4 642.594 396.967 640.461 398.1C638.394 399.233 636.494 400.8 634.761 402.8L621.861 391.3C624.794 387.633 628.528 384.833 633.061 382.9C637.594 380.9 642.794 379.9 648.661 379.9ZM698.443 436V394.1L703.343 398.9H681.743V381.3H737.643V398.9H716.043L720.943 394.1V436H698.443ZM770.293 437C764.093 437 758.593 435.8 753.793 433.4C749.06 430.933 745.326 427.567 742.593 423.3C739.86 419.033 738.493 414.133 738.493 408.6C738.493 403.067 739.86 398.167 742.593 393.9C745.326 389.633 749.06 386.3 753.793 383.9C758.593 381.5 764.093 380.3 770.293 380.3C776.493 380.3 781.993 381.5 786.793 383.9C791.593 386.3 795.326 389.633 797.993 393.9C800.726 398.167 802.093 403.067 802.093 408.6C802.093 414.133 800.726 419.033 797.993 423.3C795.326 427.567 791.593 430.933 786.793 433.4C781.993 435.8 776.493 437 770.293 437ZM770.293 419.4C771.96 419.4 773.46 419 774.793 418.2C776.126 417.4 777.193 416.2 777.993 414.6C778.793 412.933 779.193 410.933 779.193 408.6C779.193 406.2 778.793 404.233 777.993 402.7C777.193 401.1 776.126 399.9 774.793 399.1C773.46 398.3 771.96 397.9 770.293 397.9C768.626 397.9 767.126 398.3 765.793 399.1C764.46 399.9 763.393 401.1 762.593 402.7C761.793 404.233 761.393 406.2 761.393 408.6C761.393 410.933 761.793 412.933 762.593 414.6C763.393 416.2 764.46 417.4 765.793 418.2C767.126 419 768.626 419.4 770.293 419.4ZM839.066 436V381.3H862.966L880.366 415.4H870.966L890.666 381.3H911.866L912.066 436H891.766L891.666 403.1L895.166 405.5L880.066 431.7H870.566L855.466 403.8L859.366 402.8V436H839.066ZM952.062 437C945.395 437 939.562 435.767 934.562 433.3C929.628 430.833 925.795 427.467 923.062 423.2C920.328 418.867 918.962 414 918.962 408.6C918.962 403.067 920.295 398.167 922.962 393.9C925.695 389.633 929.395 386.3 934.062 383.9C938.795 381.5 944.095 380.3 949.962 380.3C955.362 380.3 960.328 381.367 964.862 383.5C969.462 385.633 973.128 388.8 975.862 393C978.662 397.2 980.062 402.4 980.062 408.6C980.062 409.4 980.028 410.3 979.962 411.3C979.895 412.233 979.828 413.1 979.762 413.9H937.662V403H967.762L959.262 405.9C959.262 403.767 958.862 401.967 958.062 400.5C957.328 398.967 956.295 397.8 954.962 397C953.628 396.133 952.028 395.7 950.162 395.7C948.295 395.7 946.662 396.133 945.262 397C943.928 397.8 942.895 398.967 942.162 400.5C941.428 401.967 941.062 403.767 941.062 405.9V409.3C941.062 411.633 941.528 413.633 942.462 415.3C943.395 416.967 944.728 418.233 946.462 419.1C948.195 419.9 950.295 420.3 952.762 420.3C955.295 420.3 957.362 419.967 958.962 419.3C960.628 418.633 962.362 417.633 964.162 416.3L975.962 428.2C973.295 431.067 969.995 433.267 966.062 434.8C962.195 436.267 957.528 437 952.062 437ZM1016.89 437C1010.62 437 1005.05 435.8 1000.19 433.4C995.32 431 991.487 427.667 988.687 423.4C985.953 419.067 984.587 414.133 984.587 408.6C984.587 403.067 985.953 398.167 988.687 393.9C991.487 389.633 995.32 386.3 1000.19 383.9C1005.05 381.5 1010.62 380.3 1016.89 380.3C1023.55 380.3 1029.25 381.733 1033.99 384.6C1038.72 387.467 1041.99 391.433 1043.79 396.5L1026.29 405.1C1025.15 402.567 1023.75 400.733 1022.09 399.6C1020.49 398.467 1018.72 397.9 1016.79 397.9C1015.12 397.9 1013.55 398.3 1012.09 399.1C1010.69 399.9 1009.55 401.1 1008.69 402.7C1007.89 404.233 1007.49 406.2 1007.49 408.6C1007.49 411 1007.89 413 1008.69 414.6C1009.55 416.2 1010.69 417.4 1012.09 418.2C1013.55 419 1015.12 419.4 1016.79 419.4C1018.72 419.4 1020.49 418.833 1022.09 417.7C1023.75 416.567 1025.15 414.733 1026.29 412.2L1043.79 420.8C1041.99 425.867 1038.72 429.833 1033.99 432.7C1029.25 435.567 1023.55 437 1016.89 437ZM1063.09 436V394.1L1067.99 398.9H1046.39V381.3H1102.29V398.9H1080.69L1085.59 394.1V436H1063.09ZM1134.94 437C1128.74 437 1123.24 435.8 1118.44 433.4C1113.71 430.933 1109.97 427.567 1107.24 423.3C1104.51 419.033 1103.14 414.133 1103.14 408.6C1103.14 403.067 1104.51 398.167 1107.24 393.9C1109.97 389.633 1113.71 386.3 1118.44 383.9C1123.24 381.5 1128.74 380.3 1134.94 380.3C1141.14 380.3 1146.64 381.5 1151.44 383.9C1156.24 386.3 1159.97 389.633 1162.64 393.9C1165.37 398.167 1166.74 403.067 1166.74 408.6C1166.74 414.133 1165.37 419.033 1162.64 423.3C1159.97 427.567 1156.24 430.933 1151.44 433.4C1146.64 435.8 1141.14 437 1134.94 437ZM1134.94 419.4C1136.61 419.4 1138.11 419 1139.44 418.2C1140.77 417.4 1141.84 416.2 1142.64 414.6C1143.44 412.933 1143.84 410.933 1143.84 408.6C1143.84 406.2 1143.44 404.233 1142.64 402.7C1141.84 401.1 1140.77 399.9 1139.44 399.1C1138.11 398.3 1136.61 397.9 1134.94 397.9C1133.27 397.9 1131.77 398.3 1130.44 399.1C1129.11 399.9 1128.04 401.1 1127.24 402.7C1126.44 404.233 1126.04 406.2 1126.04 408.6C1126.04 410.933 1126.44 412.933 1127.24 414.6C1128.04 416.2 1129.11 417.4 1130.44 418.2C1131.77 419 1133.27 419.4 1134.94 419.4Z" fill="black"/>
</svg>
